<svg viewBox="0 0 118 152" fill="none" xmlns="http://www.w3.org/2000/svg">
<path fill-rule="evenodd" clip-rule="evenodd" d="M8 0C3.58172 0 0 3.58172 0 8V144C0 148.418 3.58172 152 8 152H110C114.418 152 118 148.418 118 144V8C118 3.58172 114.418 0 110 0H8ZM110 20H8V122H110V20Z" fill="white"/>
<path fill-rule="evenodd" clip-rule="evenodd" d="M8 1C4.13401 1 1 4.134 1 8V144C1 147.866 4.13401 151 8 151H110C113.866 151 117 147.866 117 144V8C117 4.13401 113.866 1 110 1H8ZM0 8C0 3.58172 3.58172 0 8 0H110C114.418 0 118 3.58172 118 8V144C118 148.418 114.418 152 110 152H8C3.58172 152 0 148.418 0 144V8Z" fill="#E8E8EA"/>
<path d="M98.5 133.2V141.838C98.5 142.284 98.9694 142.574 99.3683 142.375L103 140.559L106.632 142.375C107.031 142.574 107.5 142.284 107.5 141.838V133.2C107.5 132.813 107.187 132.5 106.8 132.5H99.2C98.8134 132.5 98.5 132.813 98.5 133.2Z" stroke="#A9ACB2"/>
<path fill-rule="evenodd" clip-rule="evenodd" d="M34.8981 140.934C34.8891 140.934 34.8802 140.933 34.871 140.93L33.1876 140.478C33.1541 140.47 33.1198 140.465 33.0855 140.465C33.0154 140.465 32.9459 140.483 32.8831 140.518C32.3198 140.824 31.6767 141 30.9907 141C30.6711 141 30.3421 140.962 30.0079 140.88C28.7717 140.579 27.4556 139.301 27.1374 138.066C26.4493 135.397 28.4406 133 30.9907 133C31.3466 133 31.7136 133.047 32.0853 133.146C33.4481 133.509 34.5165 134.61 34.8556 135.981C35.1059 136.995 34.9693 137.965 34.5654 138.779C34.5201 138.87 34.5067 138.973 34.5332 139.072L34.9964 140.805C35.0144 140.872 34.9626 140.934 34.8981 140.934Z" stroke="#A9ACB2"/>
<path d="M14.9999 142C15.1228 142 15.2458 141.959 15.3499 141.879C16.3158 141.129 18.9895 138.984 19.6228 137.749C20.3993 136.235 19.9385 134.298 18.5935 133.424C18.1512 133.136 17.6689 133 17.193 133C16.3587 133 15.5441 133.42 14.9999 134.181C14.4562 133.42 13.6414 133 12.8068 133C12.331 133 11.8487 133.136 11.4066 133.424C10.0614 134.298 9.60075 136.235 10.3772 137.749C11.0105 138.984 13.6841 141.129 14.6499 141.879C14.7541 141.959 14.877 142 14.9999 142Z" stroke="#A9ACB2"/>
<path d="M51.9688 133.137C51.9274 133.061 51.8492 133.013 51.7637 133.012L42.2449 133C42.1431 132.998 42.0509 133.063 42.0152 133.16C41.9795 133.258 42.0081 133.367 42.0864 133.433L45.5 136.25M51.9688 133.137C52.0177 133.224 52.0084 133.334 51.9454 133.413L45.9249 140.654C45.8607 140.735 45.7536 140.766 45.6578 140.731C45.5621 140.697 45.4987 140.604 45.5 140.5V136.25M51.9688 133.137L45.5 136.25" stroke="#A9ACB2"/>
<path fill-rule="evenodd" clip-rule="evenodd" d="M97.473 11.9999C98.2866 11.9999 98.946 11.3284 98.946 10.5C98.946 9.67156 98.2866 9 97.473 9C96.6595 9 96 9.67156 96 10.5C96 11.3284 96.6595 11.9999 97.473 11.9999ZM103.973 10.5C103.973 11.3284 103.314 12 102.5 12C101.686 12 101.027 11.3284 101.027 10.5C101.027 9.67162 101.686 9.00006 102.5 9.00006C103.314 9.00006 103.973 9.67162 103.973 10.5ZM109 10.5C109 11.3284 108.341 12 107.527 12C106.713 12 106.054 11.3284 106.054 10.5C106.054 9.67162 106.713 9.00006 107.527 9.00006C108.341 9.00006 109 9.67162 109 10.5Z" fill="#A9ACB2"/>
</svg>
