<svg viewBox="0 0 90 165" fill="none" xmlns="http://www.w3.org/2000/svg">
<path fill-rule="evenodd" clip-rule="evenodd" d="M0 11.3274C0 5.07145 5.07628 0 11.3382 0H78.6618C84.9237 0 90 5.07145 90 11.3274V153.673C90 159.929 84.9237 165 78.6618 165H11.3382C5.07628 165 0 159.929 0 153.673V11.3274ZM22.6004 6L13.2175 6C9.23137 6 6 9.22946 6 13.2132V151.787C6 155.771 9.23137 159 13.2175 159H76.7825C80.7686 159 84 155.771 84 151.787V13.2132C84 9.22946 80.7686 6 76.7825 6H67.3583C66.7745 6 66.295 6.46077 66.2721 7.04369C66.149 10.1773 64.5161 12 61.8851 12C60.8402 12 58.6375 12.0067 55.8233 12.0152C46.8881 12.0423 31.7885 12.0881 28.0108 11.9981C25.0276 11.9271 23.7569 10.1109 23.6871 7.06148C23.6736 6.47135 23.1911 6 22.6004 6Z" fill="white"/>
<path fill-rule="evenodd" clip-rule="evenodd" d="M11.3382 1C5.62767 1 1 5.62463 1 11.3274V153.673C1 159.375 5.62767 164 11.3382 164H78.6618C84.3723 164 89 159.375 89 153.673V11.3274C89 5.62463 84.3723 1 78.6618 1H11.3382ZM11.3382 0C5.07628 0 0 5.07145 0 11.3274V153.673C0 159.929 5.07628 165 11.3382 165H78.6618C84.9237 165 90 159.929 90 153.673V11.3274C90 5.07145 84.9237 0 78.6618 0H11.3382Z" fill="#E8E8EA"/>
<path fill-rule="evenodd" clip-rule="evenodd" d="M38 6H49C49.5 6 50 6.44772 50 7C50 7.55228 49.5 8 49 8H38C37.5 8 37 7.55228 37 7C37 6.44772 37.5 6 38 6ZM54 7C54 7.55228 53.5523 8 53 8C52.4477 8 52 7.55228 52 7C52 6.44772 52.4477 6 53 6C53.5523 6 54 6.44772 54 7Z" fill="#E8E8EA"/>
</svg>
