<svg width="118" height="164" viewBox="0 0 118 164" fill="none" xmlns="http://www.w3.org/2000/svg">
<path fill-rule="evenodd" clip-rule="evenodd" d="M2.34315 53.6569C0.842855 55.1572 0 57.192 0 59.3137V156C0 160.418 3.58172 164 8 164H110C114.418 164 118 160.418 118 156V59.3137C118 57.192 117.157 55.1572 115.657 53.6569L111 49V157H7V49L2.34315 53.6569ZM43 13H75L64.6569 2.65687C61.5327 -0.467323 56.4674 -0.467333 53.3432 2.65686L43 13Z" fill="white"/>
<path fill-rule="evenodd" clip-rule="evenodd" d="M111 157H7V50.4142L3.05025 54.364C1.7375 55.6767 1 57.4572 1 59.3137V156C1 159.866 4.13401 163 8 163H110C113.866 163 117 159.866 117 156V59.3137C117 57.4572 116.263 55.6767 114.95 54.364L111 50.4142V157ZM111 49V157H7V49L2.34315 53.6569C0.842855 55.1572 0 57.192 0 59.3137V156C0 160.418 3.58172 164 8 164H110C114.418 164 118 160.418 118 156V59.3137C118 57.192 117.157 55.1572 115.657 53.6569L111 49ZM75 13L64.6569 2.65687C61.5327 -0.467323 56.4674 -0.467333 53.3432 2.65686L43 13H75ZM44.4142 13H73.5858L63.9497 3.36398C61.2161 0.630307 56.7839 0.6303 54.0503 3.36397L44.4142 13Z" fill="#E8E8EA"/>
</svg>
